<mxfile host="app.diagrams.net" modified="2024-05-28T08:12:44.151Z" agent="Mozilla/5.0 (Windows NT 10.0; Win64; x64) AppleWebKit/537.36 (KHTML, like Gecko) Chrome/125.0.0.0 Safari/537.36" version="24.4.9" etag="1v7mRiu28-9PgHq6MQzF" type="github">
  <diagram name="第 1 页" id="eqeq6McY91UALREcRUYb">
    <mxGraphModel>
      <root>
        <mxCell id="0" />
        <mxCell id="1" parent="0" />
      </root>
    </mxGraphModel>
  </diagram>
</mxfile>
